<svg xmlns="http://www.w3.org/2000/svg" version="1.1" xmlns:xlink="http://www.w3.org/1999/xlink" xmlns:svgjs="http://svgjs.dev/svgjs" width="1000" height="238" viewBox="0 0 1000 238"><g transform="matrix(1,0,0,1,0.16994382022460286,0.2661402960062702)"><svg viewBox="0 0 356 85" data-background-color="#ffffff" preserveAspectRatio="xMidYMid meet" height="238" width="1000" xmlns="http://www.w3.org/2000/svg" xmlns:xlink="http://www.w3.org/1999/xlink"><g id="tight-bounds" transform="matrix(1,0,0,1,-0.06049999999996203,-0.09505010571652406)"><svg viewBox="0 0 356.12052 85.19010021143305" height="85.19010021143305" width="356.12052"><g><svg viewBox="0 0 356.12052 85.19010021143305" height="85.19010021143305" width="356.12052"><g><svg viewBox="0 0 356.12052 85.19010021143305" height="85.19010021143305" width="356.12052"><g><path d="M0 85.19v-85.19h356.121v85.19z" fill="#3470ff" stroke="transparent" stroke-width="0" rx="0%" data-fill-palette-color="tertiary"></path><path d="M3.283 81.907v-78.624h349.554v78.624z" fill="#ffffff" stroke="transparent" stroke-width="0" rx="0%" data-fill-palette-color="quaternary"></path><path d="M9.85 75.34v-65.49h336.421v65.49z" fill="#3470ff" stroke="transparent" stroke-width="0" data-fill-palette-color="tertiary"></path></g><g transform="matrix(1,0,0,1,19.69974,19.69974)" id="textblocktransform"><svg viewBox="0 0 316.72104 45.79062021143305" height="45.79062021143305" width="316.72104" id="textblock"><g><svg viewBox="0 0 316.72104 45.79062021143305" height="45.79062021143305" width="316.72104"><g transform="matrix(1,0,0,1,0,0)"><svg width="316.72104" viewBox="3.17 -35.06 249.4 36.06" height="45.79062021143305" data-palette-color="#ffffff"><path d="M3.17 0L16.92-34.69 23.66-34.69 37.38 0 31.05 0 27.17-9.08 13.01-9.08 9.13 0 3.17 0ZM15.14-14.72L25.02-14.72 20.09-27.59 15.14-14.72ZM59.96 0.49L59.96 0.49Q46.14 0.49 44.97-9.18L44.97-9.18Q44.85-10.23 44.85-11.84L44.85-11.84 44.85-12.16 44.85-34.69 51-34.69 51-12.7Q51-10.86 51.35-9.63 51.71-8.4 52.78-7.37L52.78-7.37Q55.15-5.1 59.96-5.1L59.96-5.1Q63.4-5.1 65.67-6.32 67.94-7.54 68.58-9.77L68.58-9.77Q68.89-10.84 68.89-12.7L68.89-12.7 68.89-34.69 75-34.69Q75-27.08 75.01-22.23 75.02-17.38 75.02-16.03 75.02-14.67 75.03-13.84 75.05-13.01 75.05-12.48L75.05-12.48Q75.05-11.33 74.99-10.41 74.92-9.5 74.59-8.08 74.27-6.67 73.69-5.58 73.12-4.49 71.98-3.3 70.85-2.1 69.3-1.32 67.75-0.54 65.35-0.02 62.96 0.49 59.96 0.49ZM82.25-29.03L82.25-34.69 113.59-34.69 113.59-29.03 101-29.03 101 0 94.84 0 94.84-29.03 82.25-29.03ZM137.3-35.06L137.3-35.06Q142.6-35.06 146.72-32.98 150.85-30.91 153.22-26.94 155.58-22.97 155.58-17.72L155.58-17.72Q155.58-12.4 153.26-8.29 150.94-4.17 146.75-1.9 142.55 0.37 137.1 0.37L137.1 0.37Q133.51 0.37 130.29-0.74 127.07-1.86 124.52-3.99 121.97-6.13 120.46-9.55 118.96-12.96 118.96-17.26L118.96-17.26Q118.96-22.61 121.31-26.67 123.65-30.74 127.8-32.9 131.95-35.06 137.3-35.06ZM140.51-28.99Q138.81-29.42 137.05-29.42 135.3-29.42 133.64-28.99 131.97-28.56 130.45-27.65 128.92-26.73 127.78-25.39 126.63-24.05 125.94-22.08 125.26-20.12 125.26-17.75L125.26-17.75Q125.26-12.11 128.75-8.69 132.24-5.27 137.47-5.27L137.47-5.27Q139.64-5.27 141.68-5.98 143.72-6.69 145.45-8.08 147.18-9.47 148.23-11.87 149.28-14.26 149.28-17.31L149.28-17.31Q149.28-19.8 148.55-21.86 147.82-23.93 146.61-25.29 145.4-26.66 143.8-27.61 142.2-28.56 140.51-28.99ZM162.27 1L162.27-6.13 169.4-6.13 169.4 1 162.27 1ZM194.98 0.49L194.98 0.49Q181.16 0.49 179.99-9.18L179.99-9.18Q179.87-10.23 179.87-11.84L179.87-11.84 179.87-12.16 179.87-34.69 186.02-34.69 186.02-12.7Q186.02-10.86 186.38-9.63 186.73-8.4 187.8-7.37L187.8-7.37Q190.17-5.1 194.98-5.1L194.98-5.1Q198.43-5.1 200.7-6.32 202.97-7.54 203.6-9.77L203.6-9.77Q203.92-10.84 203.92-12.7L203.92-12.7 203.92-34.69 210.02-34.69Q210.02-27.08 210.03-22.23 210.05-17.38 210.05-16.03 210.05-14.67 210.06-13.84 210.07-13.01 210.07-12.48L210.07-12.48Q210.07-11.33 210.01-10.41 209.95-9.5 209.62-8.08 209.29-6.67 208.72-5.58 208.14-4.49 207.01-3.3 205.87-2.1 204.32-1.32 202.77-0.54 200.38-0.02 197.99 0.49 194.98 0.49ZM218.37 0L232.11-34.69 238.85-34.69 252.57 0 246.25 0 242.37-9.08 228.21-9.08 224.33 0 218.37 0ZM230.33-14.72L240.22-14.72 235.29-27.59 230.33-14.72Z" opacity="1" transform="matrix(1,0,0,1,0,0)" fill="#ffffff" class="wordmark-text-0" data-fill-palette-color="quaternary" id="text-0"></path></svg></g></svg></g></svg></g></svg></g><g></g></svg></g><defs></defs></svg><rect width="356.12052" height="85.19010021143305" fill="none" stroke="none" visibility="hidden"></rect></g></svg></g></svg>