<svg enable-background="new 0 0 382.6 382.6" image-rendering="optimizeQuality" shape-rendering="geometricPrecision" text-rendering="geometricPrecision" viewBox="0 0 382.6 382.6" xmlns="http://www.w3.org/2000/svg"><path clip-rule="evenodd" d="m55 15.3h272.6c21.9 0 39.7 17.8 39.7 39.7v272.6c0 21.9-17.8 39.7-39.7 39.7h-272.6c-21.9 0-39.7-17.8-39.7-39.7v-272.6c0-22 17.7-39.7 39.7-39.7z" fill="#256bb1" fill-rule="evenodd"/><path clip-rule="evenodd" d="m191.3 33.7c87 0 157.6 70.5 157.6 157.5s-70.6 157.6-157.6 157.6-157.6-70.5-157.6-157.5 70.6-157.6 157.6-157.6z" fill="#fefefe" fill-rule="evenodd"/><path d="m129.1 152.4h19.8v77.6h-19.8v-10.5h-35.5l19.9-19h15.6v-20.6l-55 51.8v-27.4zm41.5 20.4h-16.3v-20.3h71.1l-21.4 20.3h-12.1v57.3h-21.3z" fill="#c32328"/><path d="m230.3 171.2h39.7l19.7-18.7h-59.4l-19.7 18.7v58.9h45.2c2.8 0 5.5-.7 8-2s4.7-3.1 6.5-5.4c1.9-2.3 3.4-4.8 4.5-7.7 1-2.9 1.6-6 1.6-9.2 0-3.6-.5-6.9-1.6-9.8-1-2.9-2.5-5.4-4.4-7.5s-4.1-3.7-6.6-4.8-5.2-1.7-8.1-1.7h-21.1v18.7h17.2c1.6 0 2.7.5 3.6 1.5s1.3 2.2 1.3 3.9c0 1-.2 2-.6 2.8s-.9 1.4-1.7 1.9c-.7.5-1.6.7-2.6.7h-21.5z" fill="#c32328"/><g clip-rule="evenodd" fill="#256bb1" fill-rule="evenodd"><path d="m293.4 96.4-14.3 40.2c-28.6-40.6-81.8-29-147.8 9.8 45.7-46.4 98.6-67.1 162.1-50zm-204.2 189.8 14.3-40.2c28.6 40.6 81.8 29 147.8-9.8-45.7 46.4-98.7 67-162.1 50z"/><path d="m281.9 84.5c-101.3-95.6-279.5 17.5-220 159 3.8-105.6 137.8-179.7 220-159zm-181.2 213.5c101.3 95.6 279.5-17.5 219.9-159-3.7 105.6-137.8 179.8-219.9 159z"/><path d="m51.7 4.3h279.2c26.1 0 47.3 21.3 47.3 47.3v279.2c0 26.1-21.3 47.3-47.3 47.3h-279.2c-26.1 0-47.3-21.3-47.3-47.3v-279.1c-.1-26.1 21.2-47.4 47.3-47.4zm-1.3-4.3h281.8c27.7 0 50.4 22.7 50.4 50.4v281.8c0 27.7-22.7 50.4-50.4 50.4h-281.8c-27.7 0-50.4-22.7-50.4-50.4v-281.8c0-27.7 22.7-50.4 50.4-50.4z"/></g></svg>