<svg width="170" height="24" viewBox="0 0 170 24" fill="none" xmlns="http://www.w3.org/2000/svg">
<path d="M0 19.0351H22.9506L21.6968 20.7328H0V19.0351Z" fill="#D40511"/>
<path d="M0 15.887H25.2823L24.026 17.5812H0V15.887Z" fill="#D40511"/>
<path d="M0 22.1867H20.6205L19.372 23.8723H0V22.1867Z" fill="#D40511"/>
<path d="M169.709 20.7328H146.849L148.102 19.0369H169.709V20.7328Z" fill="#D40511"/>
<path d="M169.709 23.8723L144.524 23.874L145.772 22.1867H169.709V23.8723Z" fill="#D40511"/>
<path d="M150.431 15.887H169.709V17.583L149.177 17.5838L150.431 15.887Z" fill="#D40511"/>
<path d="M22.229 23.872L33.1197 9.15306H46.6343C48.1281 9.15306 48.1085 9.71722 47.3789 10.7013C46.6376 11.7004 45.3759 13.4185 44.6208 14.4328C44.2376 14.948 43.5444 15.8868 45.8407 15.8868H63.9459C62.4402 17.9386 57.5558 23.872 48.7862 23.872H22.229Z" fill="#D40511"/>
<path d="M84.5997 15.8856L78.6945 23.872H63.1154C63.1154 23.872 69.0181 15.8868 69.0234 15.8868L84.5997 15.8856Z" fill="#D40511"/>
<path d="M107.128 15.8868L101.219 23.872H85.6463C85.6463 23.872 91.5496 15.8868 91.5548 15.8868H107.128Z" fill="#D40511"/>
<path d="M112.194 15.8868C112.195 15.8868 111.056 17.4349 110.503 18.1779C108.547 20.8078 110.276 23.8712 116.66 23.8712H141.671L147.579 15.886L112.194 15.8868Z" fill="#D40511"/>
<path d="M29.845 0L24.4229 7.32801H53.9739C55.4674 7.32801 55.4478 7.89217 54.7178 8.87623C53.9764 9.87424 52.7355 11.612 51.9805 12.6263C51.5971 13.1404 50.904 14.0791 53.2004 14.0791H65.2847C65.2847 14.0791 67.2329 11.4422 68.8652 9.23798C71.0866 6.2393 69.0579 0 61.117 0H29.845Z" fill="#D40511"/>
<path d="M108.466 14.0791H70.3618L80.7816 0H96.355L90.384 8.07228H97.3352L103.31 0H118.882L108.466 14.0791Z" fill="#D40511"/>
<path d="M140.45 0L130.033 14.0791H113.53C113.53 14.0791 123.951 0 123.956 0H140.45Z" fill="#D40511"/>
</svg>
