<?xml version="1.0" encoding="utf-8"?>
<!-- Generator: Adobe Illustrator 26.3.1, SVG Export Plug-In . SVG Version: 6.00 Build 0)  -->
<svg version="1.1" id="Слой_1" xmlns="http://www.w3.org/2000/svg" xmlns:xlink="http://www.w3.org/1999/xlink" x="0px" y="0px"
	 viewBox="0 0 2922 1036" style="enable-background:new 0 0 2922 1036;" xml:space="preserve">
<g>
	<path d="M401,237C180,237,0,415,0,637c0,221,180,399,401,399c222,0,402-178,402-399C803,415,623,237,401,237z M401,869
		c-123,0-224-109-224-232c0-124,101-233,224-233c124,0,225,109,225,233C626,760,525,869,401,869z"/>
	<path d="M171,177c48,0,88-40,88-89c0-48-40-88-88-88c-49,0-89,40-89,88C82,137,122,177,171,177z"/>
	<path d="M631,177c48,0,88-40,88-89c0-48-40-88-88-88c-49,0-89,40-89,88C542,137,582,177,631,177z"/>
	<path d="M401,177c48,0,88-40,88-89c0-48-40-88-88-88c-49,0-89,40-89,88C312,137,352,177,401,177z"/>
	<polygon points="2173,251 1978,251 1747,572 1747,13 1570,13 1570,1022 1747,1022 1747,701 1996,1022 2205,1022 1898,632 	"/>
	<polygon points="1487,251 1292,251 1061,572 1061,13 884,13 884,1022 1061,1022 1061,701 1310,1022 1519,1022 1212,632 	"/>
	<path d="M2520,237c-221,0-401,178-401,400c0,221,180,399,401,399c222,0,402-178,402-399C2922,415,2742,237,2520,237z M2519,869
		c-123,0-224-109-224-232c0-124,101-233,224-233c124,0,225,109,225,233C2744,760,2643,869,2519,869z"/>
</g>
</svg>
