<?xml version="1.0" encoding="UTF-8"?>
<!DOCTYPE svg PUBLIC "-//W3C//DTD SVG 1.1//EN" "http://www.w3.org/Graphics/SVG/1.1/DTD/svg11.dtd">
<!-- Creator: CorelDRAW X7 -->
<svg xmlns="http://www.w3.org/2000/svg" xml:space="preserve" width="75mm" height="75mm" version="1.1" style="shape-rendering:geometricPrecision; text-rendering:geometricPrecision; image-rendering:optimizeQuality; fill-rule:evenodd; clip-rule:evenodd"
viewBox="0 0 7500 7500"
 xmlns:xlink="http://www.w3.org/1999/xlink"
 xmlns:dc="http://purl.org/dc/elements/1.1/"
 xmlns:cc="http://creativecommons.org/ns#"
 xmlns:rdf="http://www.w3.org/1999/02/22-rdf-syntax-ns#"
 xmlns:svg="http://www.w3.org/2000/svg"
 xmlns:sodipodi="http://sodipodi.sourceforge.net/DTD/sodipodi-0.dtd"
 xmlns:inkscape="http://www.inkscape.org/namespaces/inkscape"
 inkscape:version="0.48.4 r9939"
 sodipodi:docname="New document 4">
 <defs>
  <style type="text/css">
   <![CDATA[
    .fil0 {fill:#ED1C24}
   ]]>
  </style>
 </defs>
 <g id="Слой_x0020_1">
  <metadata id="CorelCorpID_0Corel-Layer"/>
  <sodipodi:namedview id="base" pagecolor="#ffffff" bordercolor="#ffffff" borderopacity="0.0" inkscape:pageopacity="0.0" inkscape:pageshadow="0" inkscape:zoom="2.8" inkscape:cx="143.44787" inkscape:cy="42.853093" inkscape:document-units="px" inkscape:current-layer="layer1" showgrid="false" fit-margin-top="0" fit-margin-left="0" fit-margin-right="0" fit-margin-bottom="0" inkscape:window-width="1366" inkscape:window-height="746" inkscape:window-x="-8" inkscape:window-y="-8" inkscape:window-maximized="1"/>
  <g id="g4203">
   <path id="path3433" class="fil0" d="M3404 3094c0,0 0,0 117,0 43,0 64,21 64,69 0,0 0,0 0,168 0,0 0,0 229,0 0,0 0,0 0,-168 0,-48 21,-69 69,-69 0,0 0,0 112,0 0,0 0,0 0,111 0,0 0,0 -48,0 0,0 -5,5 -5,5 0,0 0,0 0,474 0,0 0,0 -128,0 0,0 0,0 0,-237 0,0 0,0 -229,0 0,0 0,0 0,237 0,0 0,0 -128,0 0,0 0,0 0,-474 0,0 0,-5 -5,-5 0,0 0,0 -48,0 0,0 0,0 0,-111l0 0z" inkscape:connector-curvature="0"/>
   <path id="path3435" class="fil0" d="M4330 3084l3 0 0 122 -3 -1c-96,0 -170,79 -170,179 0,105 74,190 170,190l3 -1 0 121 -3 1c-170,0 -309,-137 -309,-311 0,-168 139,-300 309,-300l0 0z" inkscape:connector-curvature="0"/>
   <path id="path3437" class="fil0" d="M4333 3084l59 6c141,27 247,147 247,294 0,152 -106,276 -247,304l-59 6 0 -121 65 -14c63,-29 108,-96 108,-175 0,-75 -45,-138 -108,-165l-65 -13 0 -122z" inkscape:connector-curvature="0"/>
   <path id="path3439" class="fil0" d="M4665 3094c0,0 0,0 179,0l85 0 0 111 -8 0c-11,0 -32,0 -75,0 0,0 0,0 0,121 0,0 0,0 36,0l47 0 0 105 -27 0c-14,0 -32,0 -56,0 0,0 0,0 0,132 0,5 0,5 6,5 0,0 0,0 38,0l39 0 0 116 -11 0c-20,0 -58,0 -135,0 -43,0 -64,-21 -64,-68l0 -411c0,0 0,0 -54,0 0,0 0,0 0,-111l0 0z" inkscape:connector-curvature="0"/>
   <path id="path3441" class="fil0" d="M4929 3094l2 0c118,0 187,64 187,159 0,57 -27,94 -53,121 48,21 79,73 79,131 0,111 -85,179 -207,179 0,0 0,0 -2,0l-6 0 0 -116 13 0c43,0 69,-26 69,-68 0,-42 -26,-69 -69,-69 0,0 0,0 -12,0l-1 0 0 -105 2 0c38,0 59,-26 59,-63 0,-37 -21,-58 -59,-58 0,0 0,0 -1,0l-1 0 0 -111 0 0z" inkscape:connector-curvature="0"/>
   <path id="path3443" class="fil0" d="M5389 3094c0,0 0,0 54,0l10 0 0 169c-5,11 -11,26 -11,42 0,0 0,0 -42,121 0,0 0,0 45,0l8 0 0 111 -29 0c-16,0 -35,0 -56,0 0,0 0,0 -37,95 -11,36 -32,52 -75,52 0,0 0,0 -80,0 0,0 0,0 0,-116 0,0 0,0 27,0 11,0 11,0 16,-5 0,0 0,0 170,-469l0 0z" inkscape:connector-curvature="0"/>
   <path id="path3445" class="fil0" d="M5453 3094l64 0c0,0 0,0 170,469 5,5 5,5 16,5 0,0 0,0 21,0 0,0 0,0 0,116 0,0 0,0 -74,0 -43,0 -64,-16 -75,-58 0,0 0,0 -37,-89 0,0 0,0 -72,0l-13 0 0 -111 53 0c0,0 0,0 -42,-121 0,-16 -6,-31 -11,-42l0 -169 0 0z" inkscape:connector-curvature="0"/>
   <path id="path3447" class="fil0" d="M3404 3852c0,0 0,0 463,0 43,0 69,22 69,69 0,0 0,0 0,400 0,5 0,5 6,5 0,0 0,0 42,0 0,0 0,0 0,116 0,0 0,0 -111,0 -48,0 -70,-21 -70,-68 0,0 0,0 0,-405 0,0 0,-6 -5,-6 0,0 0,0 -213,0 0,0 0,0 0,479 0,0 0,0 -128,0 0,0 0,0 0,-479 0,0 0,0 -53,0 0,0 0,0 0,-111z" inkscape:connector-curvature="0"/>
   <path id="path3449" class="fil0" d="M4320 3842l2 0 0 122 -2 -1c-97,0 -171,79 -171,179 0,105 74,190 171,190l2 -1 0 121 -2 1c-171,0 -304,-137 -304,-311 0,-168 133,-300 304,-300l0 0z" inkscape:connector-curvature="0"/>
   <path id="path3451" class="fil0" d="M4322 3842l61 6c143,27 245,147 245,294 0,152 -102,276 -245,304l-61 6 0 -121 68 -14c63,-29 105,-96 105,-175 0,-75 -42,-138 -105,-165l-68 -13 0 -122z" inkscape:connector-curvature="0"/>
   <path id="path3453" class="fil0" d="M4655 3852c0,0 0,0 117,0 43,0 64,22 64,69 0,0 0,0 0,400 0,5 0,5 5,5 0,0 0,0 154,0 0,0 0,0 0,-474 0,0 0,0 128,0 0,0 0,0 0,474 0,0 0,0 155,0 5,0 5,0 5,-5 0,0 0,0 0,-400 0,-47 21,-69 64,-69 0,0 0,0 117,0 0,0 0,0 0,111 0,0 0,0 -48,0 -6,0 -6,6 -6,6 0,0 0,0 0,405 0,47 -21,68 -63,68 0,0 0,0 -570,0 -48,0 -69,-21 -69,-68 0,0 0,0 0,-405 0,0 0,-6 -5,-6 0,0 0,0 -48,0 0,0 0,0 0,-111l0 0z" inkscape:connector-curvature="0"/>
   <path id="path3455" class="fil0" d="M5565 3852c0,0 0,0 399,0 48,0 64,22 64,64 0,0 0,0 0,100l-117 0c0,0 0,0 0,-47 0,-6 0,-6 -6,-6 0,0 0,0 -74,0 0,0 0,0 0,479 0,0 0,0 -128,0 0,0 0,0 0,-479 0,0 0,0 -74,0 -6,0 -6,0 -6,6 0,0 0,0 0,47 0,0 0,0 -117,0 0,0 0,0 0,-100 0,-42 16,-64 59,-64z" inkscape:connector-curvature="0"/>
   <path id="path3457" class="fil0" d="M6193 3852c0,0 0,0 54,0l10 0 0 169c-6,11 -11,26 -11,42 0,0 0,0 -43,121 0,0 0,0 45,0l9 0 0 111 -29 0c-17,0 -35,0 -57,0 0,0 0,0 -37,89 -10,42 -32,58 -74,58 0,0 0,0 -80,0 0,0 0,0 0,-116 0,0 0,0 27,0 10,0 10,0 16,-5 0,0 0,0 170,-468l0 -1z" inkscape:connector-curvature="0"/>
   <path id="path3459" class="fil0" d="M6257 3852l63 0c0,0 0,0 171,469 5,5 5,5 16,5l21 0c0,0 0,0 0,116 0,0 0,0 -74,0 -43,0 -64,-16 -75,-58 0,0 0,0 -37,-89 0,0 0,0 -72,0l-13 0 0 -111 53 0c0,0 0,0 -43,-121 0,-16 -5,-31 -10,-42l0 -169 0 0z" inkscape:connector-curvature="0"/>
   <path id="path3461" class="fil0" d="M2584 3345c6,-2 14,2 22,13 0,0 0,0 362,352 21,21 21,53 0,69 0,0 0,0 -362,358 -8,10 -16,13 -22,10 -6,-3 -10,-13 -10,-26l0 -753c0,-13 4,-21 10,-23z" inkscape:connector-curvature="0"/>
   <path id="path3463" class="fil0" d="M1965 2758l26 0 24 10c0,0 0,0 373,369 16,21 10,36 -16,36 0,0 0,0 -155,0 -26,0 -48,22 -48,48 0,0 0,0 0,274 0,26 -21,47 -53,47 0,0 0,0 -271,0 -27,0 -48,-21 -48,-47 0,0 0,0 0,-274 0,-26 -21,-48 -48,-48l-165 0c-27,0 -32,-15 -16,-36 0,0 0,0 373,-369l24 -10 0 0z" inkscape:connector-curvature="0"/>
   <path id="path3465" class="fil0" d="M1382 3337c6,4 10,13 10,26l0 768c0,14 -4,22 -10,24 -7,3 -16,0 -27,-8 0,0 0,0 -367,-368 -21,-16 -21,-48 0,-69 0,0 0,0 367,-363 11,-10 20,-13 27,-10l0 0z" inkscape:connector-curvature="0"/>
   <path id="path3467" class="fil0" d="M1845 3942c0,0 0,0 271,0 32,0 54,21 54,48 0,0 0,0 0,289 0,32 21,53 47,53l144 0c27,0 37,15 16,31 0,0 0,0 -362,363 -11,11 -24,16 -37,16 -13,0 -27,-5 -37,-16 0,0 0,0 -362,-363 -22,-16 -11,-31 15,-31 0,0 0,0 155,0 27,0 48,-21 48,-53 0,0 0,0 0,-289 0,-27 21,-48 48,-48l0 0z" inkscape:connector-curvature="0"/>
  </g>
 </g>
</svg>
