<?xml version="1.0" encoding="iso-8859-1"?>
<!-- Generator: Adobe Illustrator 22.0.1, SVG Export Plug-In . SVG Version: 6.00 Build 0)  -->
<svg version="1.1" id="Layer_1" xmlns="http://www.w3.org/2000/svg" xmlns:xlink="http://www.w3.org/1999/xlink" x="0px" y="0px"
	 viewBox="0 0 74.994 13.602" style="enable-background:new 0 0 74.994 13.602;" xml:space="preserve">
<g id="Document" transform="scale(1 -1)">
	<g id="Spread" transform="translate(0 -13.602)">
		<g id="Layer_1_1_">
			<g id="Group">
				<path marker-start="none" marker-end="none" d="M22.326,12.108c-0.021-0.07-0.759-2.486-0.759-2.486h-2.361l0.759,2.486h-2.703
					c0,0-2.043-6.674-2.081-6.801h2.701c0.021,0.069,0.874,2.851,0.874,2.851h2.363c0,0-0.835-2.727-0.873-2.851h2.703
					c0.021,0.071,2.042,6.674,2.08,6.801H22.326z M36.539,11.368l-0.123-0.091l0.254,0.831h-2.703c0,0-2.042-6.674-2.082-6.801
					h2.705c0.021,0.071,1.255,4.106,1.255,4.106c0.176,0.571,0.622,0.955,1.112,0.955h0.693c0.218,0,0.389-0.074,0.493-0.215
					c0.076-0.104,0.116-0.239,0.116-0.397c0-0.113-0.021-0.237-0.061-0.37c0,0-1.087-3.559-1.247-4.079h2.703
					c0.021,0.071,1.468,4.793,1.468,4.793c0.041,0.139,0.1,0.382,0.1,0.657c0,0.283-0.061,0.6-0.266,0.877
					c-0.301,0.406-0.833,0.611-1.583,0.611C37.929,12.245,36.978,11.696,36.539,11.368z M25.838,11.619
					c0.024-0.084,0.389-1.346,0.417-1.443c0.239,0.099,1.253,0.493,2.128,0.493c0.835,0,1.31-0.112,1.488-0.353
					c0.091-0.123,0.107-0.279,0.046-0.474l-0.169-0.554l-0.049,0.017c-1.138,0.374-2.005,0.362-2.012,0.36
					c-0.904,0-1.716-0.224-2.35-0.651c-0.608-0.408-1.043-0.989-1.253-1.682c-0.186-0.611-0.141-1.131,0.135-1.503
					c0.32-0.433,0.952-0.66,1.827-0.66c0.828,0,1.728,0.212,2.536,0.601l0.105,0.05c0,0-0.128-0.416-0.158-0.513h2.703
					c0.021,0.071,1.439,4.702,1.439,4.702c0.061,0.193,0.089,0.38,0.089,0.556c0,0.294-0.083,0.56-0.249,0.784
					c-0.434,0.586-1.436,0.896-2.898,0.896C27.823,12.245,26.13,11.717,25.838,11.619z M27.979,8.274
					c0.205,0,0.911-0.015,1.346-0.22l0.039-0.019l-0.303-0.989l-0.021-0.01c-0.431-0.201-1.038-0.338-1.511-0.338
					c-0.456,0-0.775,0.107-0.923,0.308c-0.06,0.084-0.091,0.182-0.091,0.29c0,0.065,0.01,0.133,0.033,0.205
					C26.696,7.985,27.231,8.274,27.979,8.274z M47.074,12.143c-0.027-0.021-2.589-2.041-2.589-2.041l0.628,2.041h-2.701
					c0,0-2.074-6.777-2.112-6.904h2.701c0.021,0.07,0.858,2.805,0.858,2.805s1.938-2.761,1.968-2.805h2.883
					c-0.104,0.152-2.477,3.536-2.477,3.536s3.88,3.198,4.087,3.368H47.074z M48.198,8.694c-0.293-0.961-0.182-1.861,0.315-2.531
					c0.56-0.759,1.568-1.177,2.838-1.177c2.985,0,4.671,1.153,5.462,3.736c0.293,0.96,0.181,1.858-0.315,2.53
					c-0.561,0.758-1.569,1.177-2.839,1.177C50.914,12.429,48.925,11.066,48.198,8.694z M50.842,7.179
					c-0.237,0.317-0.243,0.822-0.025,1.541c0.268,0.875,0.879,1.917,2.263,1.917c0.531,0,0.888-0.133,1.087-0.404
					c0.236-0.317,0.243-0.822,0.023-1.541c-0.267-0.875-0.875-1.917-2.261-1.917C51.398,6.775,51.041,6.907,50.842,7.179z
					 M57.208,8.694c-0.294-0.961-0.184-1.861,0.313-2.531c0.562-0.759,1.57-1.177,2.84-1.177c2.986,0,4.67,1.153,5.461,3.736
					c0.294,0.96,0.182,1.858-0.315,2.53c-0.56,0.758-1.568,1.177-2.838,1.177C59.925,12.429,57.933,11.066,57.208,8.694z
					 M62.09,10.637c0.532,0,0.887-0.133,1.088-0.404c0.235-0.317,0.243-0.824,0.023-1.541c-0.268-0.875-0.877-1.917-2.263-1.917
					c-0.531,0-0.886,0.132-1.088,0.404c-0.235,0.319-0.243,0.822-0.022,1.541C60.095,9.595,60.705,10.637,62.09,10.637z
					 M71.921,12.203c-0.027-0.025-2.627-2.219-2.627-2.219l0.675,2.219H67.27c0,0-2.108-6.886-2.146-7.014h2.699
					c0.021,0.071,0.871,2.85,0.871,2.85s2.088-2.812,2.118-2.85h2.963c-0.116,0.154-2.653,3.567-2.653,3.567
					s3.663,3.276,3.872,3.447H71.921z"/>
				<path marker-start="none" marker-end="none" style="fill:#F23300;" d="M15.988,13.272l-0.036,0.33h-2.291
					c0.262-2.703-1.602-5.721-4.259-6.439l0,0C9.4,7.162,9.398,7.162,9.396,7.162C9.383,7.158,9.349,7.156,9.345,7.196
					C9.343,7.209,9.349,7.224,9.36,7.232H9.358c2.215,1.479,3.384,3.863,3.183,6.37h-2.242c0.097-2.204-1.381-4.21-3.644-5.024
					C6.64,8.574,6.606,8.572,6.602,8.612c0,0.013,0.007,0.025,0.019,0.032H6.619c1.634,1.12,2.618,2.787,2.561,4.958H6.936
					C6.915,11.002,4.577,9.187,0,9.187c0.066-0.036,0.131-0.072,0.194-0.108C3.17,7.45,4.723,6.45,6.921,4.66
					c0.338-0.291,0.808-0.45,1.283-0.435C14.134,4.639,16.267,9.844,15.988,13.272z"/>
				<path marker-start="none" marker-end="none" style="fill:#8C8C8C;" d="M29.679,3.944c0,0-0.22-0.713-0.273-0.884
					c-0.277,0.171-0.617,0.25-1.055,0.25c-1.016,0-1.822-0.497-2.06-1.27c-0.104-0.339-0.076-0.622,0.09-0.84
					c0.204-0.272,0.611-0.416,1.173-0.416c0.43,0,0.833,0.082,1.228,0.245c-0.01-0.033-0.061-0.199-0.061-0.199h0.799l1.031,3.352
					L29.679,3.944z M27.098,1.467c-0.091,0.122-0.104,0.296-0.034,0.517l0,0c0.174,0.577,0.598,0.867,1.254,0.867
					c0.467,0,0.783-0.133,0.94-0.269c-0.028-0.095-0.3-0.978-0.319-1.039c-0.372-0.199-0.761-0.3-1.156-0.3
					C27.445,1.243,27.208,1.319,27.098,1.467z M31.517,3.094c0.004,0.013,0.053,0.169,0.053,0.169h-0.801L30.021,0.83h0.797
					l0.429,1.381c0.122,0.397,0.505,0.623,1.052,0.623c0.3,0,0.463-0.04,0.585-0.08l0.058-0.021l0.378,0.484l-0.142,0.036
					c-0.158,0.04-0.37,0.057-0.668,0.057C32.162,3.31,31.798,3.229,31.517,3.094z M33.499,3.836V3.834
					c-0.021-0.064-0.008-0.135,0.036-0.191c0.076-0.099,0.233-0.156,0.431-0.156c0.241,0,0.52,0.106,0.575,0.287
					c0.019,0.068,0.005,0.138-0.04,0.199C34.429,4.07,34.279,4.127,34.1,4.127C33.808,4.127,33.555,4.005,33.499,3.836z
					 M33.455,3.263L32.701,0.83h0.801l0.748,2.433H33.455z M37.42,3.263c0,0-1.63-1.769-1.647-1.788
					C35.685,1.76,35.23,3.263,35.23,3.263h-0.845l0.896-2.432h0.636l2.397,2.432H37.42z M38.456,3.838V3.834
					c-0.02-0.064-0.007-0.135,0.037-0.191c0.075-0.099,0.233-0.156,0.432-0.156c0.238,0,0.519,0.106,0.574,0.287
					c0.02,0.07,0.005,0.138-0.038,0.199c-0.074,0.095-0.224,0.154-0.403,0.154C38.766,4.127,38.514,4.005,38.456,3.838z
					 M38.413,3.263L37.661,0.83h0.801l0.746,2.433H38.413z M40.497,3.084c0.006,0.019,0.055,0.179,0.055,0.179h-0.801L39.005,0.83
					H39.8l0.426,1.378c0.127,0.408,0.559,0.643,1.19,0.643c0.357,0,0.584-0.063,0.677-0.186c0.067-0.087,0.072-0.22,0.017-0.395
					l-0.444-1.44h0.801l0.443,1.435c0.081,0.265,0.056,0.487-0.076,0.66C42.642,3.181,42.23,3.31,41.613,3.31
					C41.199,3.31,40.812,3.231,40.497,3.084z M43.09,2.04c-0.048-0.153-0.068-0.294-0.061-0.425c0.01-0.157,0.059-0.296,0.15-0.415
					c0.205-0.272,0.611-0.416,1.173-0.416c0.429,0,0.833,0.08,1.224,0.243c-0.153-0.395-0.506-0.579-1.86-0.6l-0.133-0.002L43.786,0
					l0.061,0.002c0.799,0.013,1.382,0.104,1.786,0.279c0.401,0.171,0.65,0.437,0.763,0.81l0.67,2.172h-0.801
					c0,0-0.039-0.133-0.06-0.201c-0.277,0.169-0.617,0.248-1.056,0.248C44.134,3.31,43.327,2.813,43.09,2.04z M43.897,1.467
					c-0.091,0.122-0.103,0.296-0.035,0.517h0.002c0.175,0.577,0.596,0.867,1.255,0.867c0.467,0,0.782-0.133,0.938-0.269
					c-0.029-0.095-0.3-0.978-0.319-1.039c-0.372-0.199-0.761-0.3-1.154-0.3C44.244,1.243,44.007,1.321,43.897,1.467z M48.433,2.088
					c-0.043-0.141-0.061-0.27-0.053-0.391c0.01-0.159,0.061-0.302,0.154-0.427c0.332-0.439,1.057-0.486,1.351-0.486
					c0.646,0,1.056,0.089,1.631,0.266l0.131,0.04l-0.351,0.381l-0.055-0.017c-0.45-0.144-0.746-0.213-1.217-0.213
					c-0.361,0-0.621,0.086-0.756,0.247c-0.062,0.072-0.095,0.161-0.1,0.264c-0.002,0.03,0,0.063,0.002,0.097h2.809l0.025,0.038
					c0.032,0.053,0.058,0.106,0.087,0.195c0.038,0.124,0.053,0.241,0.047,0.353c-0.007,0.152-0.058,0.291-0.148,0.41
					c-0.229,0.304-0.698,0.465-1.357,0.465C49.542,3.31,48.659,2.821,48.433,2.088z M50.546,2.851c0.372,0,0.632-0.078,0.755-0.228
					c0.053-0.062,0.082-0.14,0.088-0.231c0.001-0.031-0.002-0.067-0.006-0.101h-2.058C49.555,2.654,49.98,2.851,50.546,2.851z
					 M55.58,2.957c-0.152,0.175-0.458,0.353-1.073,0.353c-0.383,0-0.729-0.074-1.013-0.214c0.003,0.013,0.051,0.167,0.051,0.167
					h-0.799L51.998,0.83h0.795l0.423,1.378c0.133,0.427,0.498,0.643,1.084,0.643c0.315,0,0.517-0.055,0.598-0.165
					c0.067-0.087,0.07-0.228,0.01-0.416l-0.444-1.44h0.802l0.424,1.378c0.133,0.427,0.497,0.643,1.084,0.643
					c0.319,0,0.516-0.051,0.598-0.161c0.064-0.086,0.068-0.224,0.007-0.42l-0.442-1.44h0.801l0.44,1.435
					c0.086,0.28,0.061,0.51-0.072,0.685c-0.184,0.243-0.56,0.36-1.145,0.36C56.261,3.31,55.855,3.13,55.58,2.957z M59.224,3.001
					c-0.44-0.22-0.735-0.541-0.854-0.924c-0.091-0.304-0.055-0.577,0.108-0.792c0.245-0.323,0.761-0.501,1.456-0.501
					c0.533,0,1.05,0.114,1.454,0.317c0.44,0.224,0.735,0.547,0.852,0.932c0.093,0.3,0.057,0.569-0.104,0.782
					c-0.241,0.319-0.761,0.495-1.462,0.495C60.131,3.31,59.63,3.204,59.224,3.001z M59.207,1.511
					c-0.097,0.125-0.112,0.298-0.046,0.512c0.162,0.526,0.68,0.828,1.422,0.828c0.406,0,0.703-0.095,0.834-0.268
					c0.092-0.121,0.108-0.29,0.043-0.499c-0.161-0.526-0.698-0.841-1.435-0.841C59.628,1.243,59.338,1.338,59.207,1.511z
					 M63.279,3.942c0,0-0.179-0.578-0.209-0.679h-0.53l-0.133-0.45h0.524C62.869,2.608,62.5,1.414,62.5,1.414
					c-0.026-0.078-0.036-0.152-0.032-0.216c0.004-0.076,0.028-0.145,0.07-0.202c0.11-0.146,0.334-0.212,0.704-0.212
					c0.314,0,0.553,0.023,0.828,0.078l0.042,0.009l0.226,0.484l-0.184-0.036c-0.188-0.04-0.355-0.064-0.604-0.064
					c-0.213,0-0.254,0.034-0.264,0.045c-0.002,0.004-0.015,0.025,0.01,0.107c-0.002-0.002,0.351,1.133,0.434,1.406h1.052l0.138,0.45
					h-1.055c0.057,0.18,0.285,0.919,0.285,0.919L63.279,3.942z M65.346,3.838l-0.002-0.004c-0.019-0.064-0.008-0.135,0.038-0.191
					c0.074-0.099,0.231-0.156,0.431-0.156c0.239,0,0.52,0.108,0.573,0.287c0.021,0.07,0.007,0.138-0.038,0.199
					c-0.074,0.095-0.224,0.154-0.403,0.154C65.653,4.127,65.401,4.005,65.346,3.838z M65.3,3.263L64.548,0.83h0.801l0.746,2.433
					H65.3z M66.9,3.001c-0.438-0.22-0.734-0.541-0.852-0.924c-0.093-0.304-0.055-0.577,0.106-0.792
					c0.245-0.323,0.761-0.501,1.456-0.501c0.533,0,1.05,0.114,1.454,0.317c0.44,0.224,0.737,0.547,0.854,0.932
					c0.093,0.3,0.057,0.569-0.104,0.782c-0.243,0.319-0.763,0.495-1.462,0.495C67.809,3.31,67.306,3.204,66.9,3.001z M68.261,2.851
					c0.404,0,0.701-0.095,0.832-0.266c0.093-0.123,0.108-0.292,0.043-0.501c-0.161-0.527-0.696-0.841-1.433-0.841
					c-0.399,0-0.689,0.095-0.82,0.266c-0.051,0.068-0.08,0.148-0.083,0.241c-0.006,0.082,0.007,0.173,0.037,0.273
					C66.999,2.549,67.517,2.851,68.261,2.851z M71.321,3.084c0.006,0.019,0.055,0.179,0.055,0.179h-0.801L69.827,0.83h0.797
					l0.424,1.378c0.18,0.58,0.892,0.643,1.19,0.643c0.359,0,0.586-0.063,0.679-0.186c0.065-0.087,0.071-0.22,0.015-0.395L72.49,0.83
					h0.801l0.441,1.435c0.081,0.265,0.057,0.487-0.075,0.662c-0.193,0.254-0.603,0.383-1.222,0.383
					C72.023,3.31,71.636,3.231,71.321,3.084z"/>
			</g>
		</g>
	</g>
</g>
</svg>
