<svg width="60" height="60" viewBox="0 0 60 60" fill="none" xmlns="http://www.w3.org/2000/svg">
<path d="M46.373 20.4072C44.7255 17.6079 42.3921 15.2745 39.5928 13.627C39.5328 13.5864 39.4708 13.5482 39.4072 13.5141C33.584 10.1621 26.417 10.1621 20.5942 13.5141C20.5299 13.5482 20.4674 13.5859 20.4072 13.627C17.6079 15.2745 15.2745 17.6079 13.627 20.4072C13.5859 20.4667 13.5482 20.5287 13.5141 20.5927C10.1621 26.4165 10.1621 33.5835 13.5141 39.4072C13.5576 39.4926 13.6079 39.5748 13.6641 39.6529C15.3092 42.4257 17.6289 44.7374 20.4072 46.373C20.478 46.4224 20.5522 46.4677 20.6289 46.5079C26.4346 49.8306 33.5654 49.8306 39.3711 46.5079C39.4478 46.4679 39.522 46.4224 39.5928 46.373C42.3712 44.7374 44.6908 42.4257 46.3359 39.6529C46.3921 39.5749 46.4422 39.4928 46.4859 39.4072C49.8379 33.5835 49.8379 26.4165 46.4859 20.5927C46.4513 20.5291 46.4137 20.4672 46.373 20.4072ZM39.3452 44.186L38.3662 42.4859C38.2791 42.3326 38.153 42.2052 38.0007 42.1164C37.8484 42.0277 37.6753 41.9808 37.499 41.9805C37.3227 41.9801 37.1495 42.0263 36.9968 42.1144C36.8442 42.2025 36.7175 42.3294 36.6297 42.4822C36.5418 42.635 36.4959 42.8083 36.4967 42.9846C36.4974 43.1608 36.5447 43.3338 36.6338 43.4859L37.6089 45.1759C35.5505 46.2132 33.3011 46.8167 31 46.9491V45C31 44.7348 30.8946 44.4804 30.7071 44.2929C30.5196 44.1054 30.2652 44 30 44C29.7348 44 29.4804 44.1054 29.2929 44.2929C29.1054 44.4804 29 44.7348 29 45V46.9492C26.6992 46.8179 24.4498 46.2158 22.3911 45.1801L23.3661 43.4901C23.492 43.2608 23.523 42.9913 23.4525 42.7394C23.3821 42.4875 23.2158 42.2733 22.9892 42.1425C22.7627 42.0117 22.494 41.9749 22.2406 42.0399C21.9872 42.1049 21.7694 42.2665 21.6338 42.4901L20.6547 44.19C18.7321 42.9182 17.0857 41.2718 15.814 39.3491L17.5141 38.3701C17.6674 38.283 17.7949 38.1569 17.8837 38.0046C17.9724 37.8523 18.0193 37.6792 18.0195 37.5029C18.02 37.3266 17.9738 37.1533 17.8857 37.0007C17.7975 36.848 17.6706 36.7214 17.5176 36.6338C17.3649 36.5458 17.1916 36.4998 17.0153 36.5006C16.839 36.5014 16.6661 36.5488 16.5141 36.6381L14.8241 37.6128C13.7862 35.5533 13.1826 33.3025 13.0509 31H15C15.2652 31 15.5196 30.8946 15.7071 30.7071C15.8946 30.5196 16 30.2652 16 30C16 29.7348 15.8946 29.4804 15.7071 29.2929C15.5196 29.1054 15.2652 29 15 29H13.0507C13.1821 26.6992 13.7842 24.4498 14.8199 22.3911L16.5099 23.3661C16.662 23.4552 16.8349 23.5025 17.0111 23.5033C17.1874 23.5041 17.3607 23.4583 17.5136 23.3706C17.6666 23.2829 17.7936 23.1562 17.8818 23.0034C17.97 22.8507 18.0161 22.6774 18.0156 22.501C18.0153 22.3247 17.9683 22.1516 17.8794 21.9993C17.7906 21.847 17.6631 21.7209 17.5098 21.6338L15.81 20.6547C17.0818 18.7321 18.7282 17.0857 20.6509 15.814L21.6299 17.5141C21.717 17.6674 21.8431 17.7949 21.9954 17.8837C22.1477 17.9724 22.3208 18.0193 22.4971 18.0195C22.6734 18.02 22.8467 17.9738 22.9993 17.8857C23.152 17.7975 23.2786 17.6706 23.3662 17.5176C23.4542 17.3649 23.5002 17.1916 23.4994 17.0153C23.4986 16.839 23.4512 16.6661 23.3619 16.5141L22.3873 14.8241C24.4467 13.7862 26.6975 13.1826 29 13.0509V15C29 15.2652 29.1054 15.5196 29.2929 15.7071C29.4804 15.8946 29.7348 16 30 16C30.2652 16 30.5196 15.8946 30.7071 15.7071C30.8946 15.5196 31 15.2652 31 15V13.0507C33.3008 13.1821 35.5502 13.7842 37.6089 14.8199L36.6339 16.5099C36.5448 16.662 36.4975 16.8349 36.4967 17.0111C36.4959 17.1874 36.5417 17.3607 36.6294 17.5136C36.7171 17.6666 36.8438 17.7936 36.9966 17.8818C37.1493 17.97 37.3226 18.0161 37.499 18.0156C37.6753 18.0153 37.8484 17.9683 38.0007 17.8794C38.153 17.7906 38.2791 17.6631 38.3662 17.5098L39.3452 15.81C41.2679 17.0818 42.9143 18.7282 44.186 20.6509L42.4859 21.6299C42.3326 21.717 42.2051 21.8431 42.1163 21.9954C42.0276 22.1477 41.9807 22.3208 41.9805 22.4971C41.98 22.6734 42.0262 22.8467 42.1143 22.9993C42.2025 23.152 42.3295 23.2786 42.4824 23.3662C42.6351 23.4542 42.8084 23.5002 42.9847 23.4994C43.161 23.4986 43.3339 23.4512 43.4859 23.3619L45.1759 22.3873C46.2138 24.4467 46.8174 26.6975 46.9491 29H45C44.7348 29 44.4804 29.1054 44.2929 29.2929C44.1054 29.4804 44 29.7348 44 30C44 30.2652 44.1054 30.5196 44.2929 30.7071C44.4804 30.8946 44.7348 31 45 31H46.9492C46.8179 33.3008 46.2158 35.5502 45.1801 37.6089L43.4901 36.6339C43.2608 36.5081 42.9913 36.477 42.7394 36.5475C42.4875 36.6179 42.2733 36.7842 42.1425 37.0108C42.0117 37.2373 41.9749 37.506 42.0399 37.7594C42.1049 38.0128 42.2665 38.2306 42.4901 38.3662L44.19 39.3452C42.9169 41.2681 41.2692 42.9145 39.3452 44.186Z" fill="#1F1F1F"/>
<path d="M30 18C29.7348 18 29.4804 18.1054 29.2929 18.2929C29.1054 18.4804 29 18.7348 29 19V29H21C20.7348 29 20.4804 29.1054 20.2929 29.2929C20.1054 29.4804 20 29.7348 20 30C20 30.2652 20.1054 30.5196 20.2929 30.7071C20.4804 30.8946 20.7348 31 21 31H30C30.2652 31 30.5196 30.8946 30.7071 30.7071C30.8946 30.5196 31 30.2652 31 30V19C31 18.7348 30.8946 18.4804 30.7071 18.2929C30.5196 18.1054 30.2652 18 30 18Z" fill="#1F1F1F"/>
<path d="M59 23H51.9083C51.5191 21.7804 51.0282 20.5955 50.4409 19.458L55.456 14.4429C55.8463 14.0528 55.8463 13.4194 55.456 13.0288L46.9713 4.544C46.5806 4.15375 45.9473 4.15375 45.5571 4.544L40.542 9.559C39.4045 8.97172 38.2196 8.48095 37 8.09188V1C37 0.734784 36.8946 0.48043 36.7071 0.292893C36.5196 0.105357 36.2652 0 36 0H24C23.7348 0 23.4804 0.105357 23.2929 0.292893C23.1054 0.48043 23 0.734784 23 1V8.09175C21.7804 8.48091 20.5955 8.97176 19.458 9.55913L14.4429 4.544C14.0464 4.169 13.4258 4.169 13.0288 4.544L4.544 13.0288C4.15375 13.4194 4.15375 14.0528 4.544 14.4429L9.559 19.458C8.97172 20.5955 8.48095 21.7804 8.09188 23H1C0.734784 23 0.48043 23.1054 0.292893 23.2929C0.105357 23.4804 0 23.7348 0 24V36C0 36.2652 0.105357 36.5196 0.292893 36.7071C0.48043 36.8946 0.734784 37 1 37H8.09175C8.48091 38.2196 8.97176 39.4045 9.55913 40.542L4.544 45.5571C4.15375 45.9473 4.15375 46.5806 4.544 46.9713L13.0288 55.456C13.4194 55.8463 14.0528 55.8463 14.4429 55.456L19.458 50.441C20.5955 51.0283 21.7804 51.5191 23 51.9081V59C23 59.2652 23.1054 59.5196 23.2929 59.7071C23.4804 59.8946 23.7348 60 24 60H36C36.2652 60 36.5196 59.8946 36.7071 59.7071C36.8946 59.5196 37 59.2652 37 59V51.9083C38.2196 51.5191 39.4045 51.0282 40.542 50.4409L45.5571 55.456C45.9473 55.8463 46.5806 55.8463 46.9713 55.456L55.456 46.9713C55.8463 46.5806 55.8463 45.9473 55.456 45.5571L50.441 40.542C51.0283 39.4045 51.5191 38.2196 51.9081 37H59C59.2652 37 59.5196 36.8946 59.7071 36.7071C59.8946 36.5196 60 36.2652 60 36V24C60 23.7348 59.8946 23.4804 59.7071 23.2929C59.5196 23.1054 59.2652 23 59 23ZM58 35H51.165C50.9473 35 50.7355 35.0712 50.5619 35.2026C50.3883 35.334 50.2623 35.5185 50.2031 35.728C49.7584 37.2979 49.1317 38.8104 48.3359 40.2349C48.2284 40.4254 48.1863 40.646 48.2161 40.8628C48.2459 41.0795 48.3459 41.2805 48.5009 41.435L53.334 46.269L46.2641 53.3389L41.4301 48.5C41.2757 48.345 41.0746 48.245 40.8579 48.2152C40.6411 48.1854 40.4206 48.2275 40.23 48.335C38.8071 49.13 37.2962 49.756 35.728 50.2003C35.5184 50.2594 35.3339 50.3853 35.2025 50.5589C35.0711 50.7326 35 50.9444 35 51.1621V58H25V51.165C25 50.9473 24.9288 50.7355 24.7974 50.5619C24.666 50.3883 24.4815 50.2623 24.272 50.2031C22.7021 49.7584 21.1896 49.1318 19.7651 48.336C19.5746 48.2285 19.354 48.1864 19.1372 48.2162C18.9205 48.246 18.7195 48.346 18.565 48.501L13.731 53.334L6.66113 46.2641L11.5 41.4301C11.655 41.2757 11.755 41.0746 11.7848 40.8579C11.8146 40.6411 11.7725 40.4206 11.665 40.23C10.87 38.8071 10.244 37.2962 9.79975 35.728C9.74047 35.518 9.61408 35.3331 9.43988 35.2017C9.26567 35.0702 9.05324 34.9994 8.835 35H2V25H8.835C9.05274 25 9.26451 24.9288 9.43813 24.7974C9.61174 24.666 9.73771 24.4815 9.79688 24.272C10.2416 22.7021 10.8683 21.1896 11.6641 19.7651C11.7717 19.5746 11.8137 19.354 11.7839 19.1372C11.7541 18.9205 11.6541 18.7195 11.4991 18.565L6.666 13.7359L13.7359 6.665L18.5699 11.5C18.7243 11.655 18.9254 11.755 19.1421 11.7848C19.3589 11.8146 19.5794 11.7725 19.77 11.665C21.1929 10.87 22.7038 10.244 24.272 9.79975C24.482 9.74047 24.6669 9.61408 24.7983 9.43988C24.9298 9.26567 25.0006 9.05324 25 8.835V2H35V8.835C35 9.05274 35.0712 9.26451 35.2026 9.43813C35.334 9.61174 35.5185 9.73771 35.728 9.79688C37.2979 10.2416 38.8104 10.8683 40.2349 11.6641C40.4254 11.7717 40.646 11.8137 40.8628 11.7839C41.0795 11.7541 41.2805 11.6541 41.435 11.4991L46.269 6.665L53.3389 13.7359L48.5 18.5699C48.345 18.7243 48.245 18.9254 48.2152 19.1421C48.1854 19.3589 48.2275 19.5794 48.335 19.77C49.13 21.1929 49.756 22.7038 50.2003 24.272C50.2594 24.4816 50.3853 24.6661 50.5589 24.7975C50.7326 24.9289 50.9444 25 51.1621 25H58V35Z" fill="#1F1F1F"/>
</svg>
