<svg width="64" height="40" viewBox="0 0 64 40" fill="none" xmlns="http://www.w3.org/2000/svg">
<path d="M7.46667 4.21053H9.6V35.7895H7.46667V4.21053ZM11.7333 4.21053H13.8667V35.7895H11.7333V4.21053ZM16 4.21053H18.1333V35.7895H16V4.21053ZM20.2667 4.21053H22.4V35.7895H20.2667V4.21053ZM24.5333 4.21053H26.6667V35.7895H24.5333V4.21053ZM28.8 4.21053H30.9333V35.7895H28.8V4.21053ZM33.0667 4.21053H35.2V35.7895H33.0667V4.21053ZM37.3333 4.21053H39.4667V35.7895H37.3333V4.21053ZM41.6 4.21053H43.7333V35.7895H41.6V4.21053ZM45.8667 4.21053H48V35.7895H45.8667V4.21053ZM50.1333 4.21053H52.2667V35.7895H50.1333V4.21053ZM54.4 4.21053H56.5333V35.7895H54.4V4.21053ZM0 1.05263V5.26316H2.13333V2.10526H5.33333V0H1.06667C0.783769 0 0.512458 0.110902 0.312419 0.308309C0.112381 0.505716 0 0.773456 0 1.05263ZM62.9333 0H58.6667V2.10526H61.8667V5.26316H64V1.05263C64 0.773456 63.8876 0.505716 63.6876 0.308309C63.4875 0.110902 63.2162 0 62.9333 0ZM2.13333 34.7368H0V38.9474C0 39.2265 0.112381 39.4943 0.312419 39.6917C0.512458 39.8891 0.783769 40 1.06667 40H5.33333V37.8947H2.13333V34.7368ZM61.8667 37.8947H58.6667V40H62.9333C63.2162 40 63.4875 39.8891 63.6876 39.6917C63.8876 39.4943 64 39.2265 64 38.9474V34.7368H61.8667V37.8947Z" fill="#1F1F1F"/>
</svg>
