<svg width="54" height="54" viewBox="0 0 54 54" fill="none" xmlns="http://www.w3.org/2000/svg">
<path d="M27 0C21.6599 0 16.4397 1.58352 11.9996 4.55032C7.55949 7.51712 4.09883 11.7339 2.05526 16.6675C0.0116989 21.6011 -0.522991 27.0299 0.518809 32.2674C1.56061 37.5049 4.13211 42.3159 7.90813 46.0919C11.6841 49.8679 16.4951 52.4394 21.7326 53.4812C26.9701 54.523 32.3989 53.9883 37.3325 51.9447C42.2661 49.9012 46.4829 46.4405 49.4497 42.0004C52.4165 37.5603 54 32.3401 54 27C53.9919 19.8416 51.1447 12.9788 46.0829 7.91706C41.0212 2.85533 34.1584 0.00809905 27 0ZM27.9 3.6225V1.8225C31.7116 1.9535 35.4428 2.95365 38.8089 4.7466L37.9089 6.3072C34.8172 4.67042 31.3958 3.75271 27.9 3.6225ZM26.1 3.6225C22.6045 3.75284 19.1835 4.67055 16.092 6.3072L15.192 4.7466C18.5578 2.95378 22.2887 1.95363 26.1 1.8225V3.6225ZM27 5.4C30.1701 5.39956 33.3013 6.09811 36.1706 7.44588C39.0399 8.79366 41.5768 10.7575 43.6005 13.1976L30.6621 19.7847C29.5289 19.2033 28.2736 18.9 27 18.9C25.7264 18.9 24.4711 19.2033 23.3379 19.7847L10.3995 13.1976C12.4232 10.7575 14.9601 8.79366 17.8294 7.44588C20.6987 6.09811 23.8299 5.39956 27 5.4ZM46.5669 17.865L35.0388 26.0505C34.8045 24.0754 33.8499 22.2562 32.3577 20.9412L44.7084 14.6538C45.4188 15.6689 46.0406 16.7433 46.5669 17.865ZM27 48.6C26.37 48.6 25.74 48.5667 25.1208 48.51L23.6601 34.371C24.708 34.8513 25.8472 35.1 27 35.1C28.1528 35.1 29.292 34.8513 30.3399 34.371L28.8792 48.51C28.26 48.5667 27.63 48.6 27 48.6ZM27 33.3C25.754 33.3 24.5359 32.9305 23.4999 32.2383C22.4639 31.546 21.6564 30.5621 21.1796 29.4109C20.7027 28.2597 20.578 26.993 20.8211 25.7709C21.0641 24.5488 21.6642 23.4263 22.5452 22.5452C23.4263 21.6642 24.5489 21.0641 25.7709 20.821C26.993 20.578 28.2597 20.7027 29.4109 21.1796C30.5621 21.6564 31.546 22.4639 32.2383 23.4999C32.9305 24.5359 33.3 25.754 33.3 27C33.2981 28.6703 32.6337 30.2716 31.4527 31.4527C30.2716 32.6337 28.6703 33.2981 27 33.3ZM9.29161 14.6538L21.6423 20.9412C20.1501 22.2562 19.1955 24.0754 18.9612 26.0505L7.43311 17.865C7.95941 16.7433 8.5812 15.6689 9.29161 14.6538ZM3.62251 26.1H1.82251C1.95351 22.2884 2.95366 18.5572 4.74661 15.1911L6.30721 16.0911C4.67043 19.1828 3.75272 22.6042 3.62251 26.1ZM3.62251 27.9C3.75286 31.3955 4.67056 34.8165 6.30721 37.908L4.74661 38.808C2.95379 35.4422 1.95365 31.7113 1.82251 27.9H3.62251ZM5.40001 27C5.39778 24.4636 5.84416 21.9469 6.71851 19.566L19.0134 28.296C19.319 30.1761 20.278 31.8881 21.7215 33.1308L23.2857 48.2742C18.2803 47.3941 13.7445 44.7798 10.474 40.8897C7.20355 36.9996 5.40718 32.0822 5.40001 27ZM26.1 50.3775V52.1775C22.2884 52.0465 18.5572 51.0463 15.1911 49.2534L16.0911 47.6928C19.1828 49.3296 22.6042 50.2473 26.1 50.3775ZM27.9 50.3775C31.3955 50.2471 34.8166 49.3294 37.908 47.6928L38.808 49.2534C35.4422 51.0462 31.7113 52.0464 27.9 52.1775V50.3775ZM30.7143 48.2742L32.2785 33.1308C33.722 31.8881 34.681 30.1761 34.9866 28.296L47.2815 19.566C48.3692 22.5342 48.792 25.705 48.5203 28.8545C48.2485 32.004 47.2888 35.0555 45.7088 37.7935C44.1288 40.5316 41.9671 42.8894 39.3762 44.7007C36.7853 46.5119 33.8284 47.7324 30.7143 48.276V48.2742ZM50.3775 27.9H52.1775C52.0465 31.7116 51.0464 35.4428 49.2534 38.8089L47.6928 37.9089C49.3296 34.8172 50.2473 31.3958 50.3775 27.9ZM50.3775 26.1C50.2472 22.6045 49.3295 19.1835 47.6928 16.092L49.2534 15.192C51.0462 18.5578 52.0464 22.2887 52.1775 26.1H50.3775ZM48.3489 13.635L46.7892 14.535C44.9212 11.5807 42.4193 9.07885 39.465 7.2108L40.365 5.6511C43.592 7.67916 46.3208 10.408 48.3489 13.635ZM13.635 5.6511L14.535 7.2108C11.5807 9.07885 9.07886 11.5807 7.21081 14.535L5.65111 13.635C7.67917 10.408 10.408 7.67916 13.635 5.6511ZM5.65111 40.365L7.21081 39.465C9.07886 42.4193 11.5807 44.9211 14.535 46.7892L13.635 48.3489C10.408 46.3208 7.67917 43.592 5.65111 40.365ZM40.365 48.3489L39.465 46.7892C42.4193 44.9211 44.9212 42.4193 46.7892 39.465L48.3489 40.365C46.3208 43.592 43.592 46.3208 40.365 48.3489Z" fill="#1F1F1F"/>
<path d="M27 24.3C26.466 24.3 25.944 24.4583 25.5 24.755C25.056 25.0517 24.7099 25.4734 24.5055 25.9668C24.3012 26.4601 24.2477 27.003 24.3519 27.5267C24.4561 28.0505 24.7132 28.5316 25.0908 28.9092C25.4684 29.2868 25.9495 29.5439 26.4733 29.6481C26.997 29.7523 27.5399 29.6988 28.0332 29.4945C28.5266 29.2901 28.9483 28.944 29.245 28.5C29.5417 28.056 29.7 27.534 29.7 27C29.7 26.2839 29.4155 25.5972 28.9092 25.0908C28.4028 24.5845 27.7161 24.3 27 24.3ZM27 27.9C26.822 27.9 26.648 27.8472 26.5 27.7483C26.352 27.6494 26.2366 27.5089 26.1685 27.3444C26.1004 27.18 26.0826 26.999 26.1173 26.8244C26.152 26.6498 26.2377 26.4895 26.3636 26.3636C26.4895 26.2377 26.6498 26.152 26.8244 26.1173C26.999 26.0826 27.18 26.1004 27.3444 26.1685C27.5089 26.2366 27.6494 26.352 27.7483 26.5C27.8472 26.648 27.9 26.822 27.9 27C27.9 27.2387 27.8052 27.4676 27.6364 27.6364C27.4676 27.8052 27.2387 27.9 27 27.9Z" fill="#1F1F1F"/>
</svg>
