<svg width="54" height="54" viewBox="0 0 54 54" fill="none" xmlns="http://www.w3.org/2000/svg">
<path d="M53.5259 30.51C53.0488 29.6896 52.2671 29.091 51.3511 28.8446C50.4351 28.5981 49.459 28.7238 48.6351 29.1942L32.3718 38.6802C32.3654 37.4905 31.8891 36.3517 31.0467 35.5123C30.2043 34.6729 29.0644 34.2012 27.8758 34.2H9.90309C9.82977 34.2001 9.75673 34.2088 9.68548 34.2261L7.16767 34.8561C7.10848 34.187 6.80167 33.5642 6.30744 33.1099C5.8132 32.6555 5.16718 32.4023 4.49609 32.4H2.69765C1.98219 32.4 1.29603 32.6845 0.790125 33.1908C0.284216 33.6972 0 34.3839 0 35.1V51.3C0 52.0161 0.284216 52.7028 0.790125 53.2092C1.29603 53.7155 1.98219 54 2.69765 54H4.49609C5.16534 53.9979 5.80982 53.7464 6.30378 53.2945C6.79774 52.8425 7.10573 52.2226 7.16767 51.5556L9.67648 52.1739C9.74682 52.1912 9.81898 52.1999 9.8914 52.2H22.2467C23.0419 52.1999 23.8229 51.9887 24.51 51.588L52.2212 35.4267C53.0393 34.942 53.6345 34.1551 53.8785 33.2355C54.1225 32.3159 53.9959 31.3371 53.5259 30.51ZM5.39531 51.3C5.39531 51.5387 5.30057 51.7676 5.13193 51.9364C4.9633 52.1052 4.73458 52.2 4.49609 52.2H2.69765C2.45917 52.2 2.23045 52.1052 2.06181 51.9364C1.89317 51.7676 1.79844 51.5387 1.79844 51.3V35.1C1.79844 34.8613 1.89317 34.6324 2.06181 34.4636C2.23045 34.2948 2.45917 34.2 2.69765 34.2H4.49609C4.73458 34.2 4.9633 34.2948 5.13193 34.4636C5.30057 34.6324 5.39531 34.8613 5.39531 35.1V51.3ZM51.3148 33.8724L23.6045 50.0328C23.1923 50.2732 22.7237 50.3999 22.2467 50.4H10.0011L7.19374 49.7079V36.7038L10.0128 36H27.8758C28.3527 35.9989 28.8213 36.1246 29.2338 36.3643C29.6462 36.604 29.9876 36.9491 30.2229 37.3642C30.4583 37.7793 30.5793 38.2496 30.5734 38.7269C30.5675 39.2042 30.435 39.6714 30.1894 40.0806C30.0769 40.2707 29.9426 40.4471 29.7893 40.6062C29.2814 41.1136 28.5934 41.399 27.8758 41.4H18.8836V43.2H27.8758C28.6128 43.2045 29.3393 43.0251 29.9897 42.6782C30.6401 42.3312 31.194 41.8276 31.6012 41.2128L49.5352 30.7512C49.7372 30.6331 49.9606 30.5563 50.1925 30.5253C50.4244 30.4943 50.6602 30.5097 50.8861 30.5707C51.1119 30.6316 51.3235 30.7369 51.5084 30.8804C51.6933 31.0238 51.8478 31.2026 51.9631 31.4064C52.1994 31.8205 52.2639 32.3109 52.1426 32.7721C52.0214 33.2332 51.7241 33.6284 51.3148 33.8724ZM0.899218 27H38.6664C38.9049 27 39.1336 26.9052 39.3022 26.7364C39.4708 26.5676 39.5656 26.3387 39.5656 26.1V18.4293L42.1607 19.4688C42.8037 19.7268 43.5212 19.7268 44.1642 19.4688L46.7593 18.4293V20.7C46.7593 20.9387 46.8541 21.1676 47.0227 21.3364C47.1913 21.5052 47.4201 21.6 47.6586 21.6H53.0539C53.2923 21.6 53.5211 21.5052 53.6897 21.3364C53.8583 21.1676 53.9531 20.9387 53.9531 20.7V0.9C53.9531 0.661305 53.8583 0.432387 53.6897 0.263604C53.5211 0.0948211 53.2923 0 53.0539 0H47.6586C47.4201 0 47.1913 0.0948211 47.0227 0.263604C46.8541 0.432387 46.7593 0.661305 46.7593 0.9V1.8H27.8758C27.6373 1.80005 27.4086 1.89491 27.24 2.0637L23.9066 5.4H0.899218C0.66073 5.4 0.432011 5.49482 0.263375 5.6636C0.0947387 5.83239 0 6.06131 0 6.3V26.1C0 26.3387 0.0947387 26.5676 0.263375 26.7364C0.432011 26.9052 0.66073 27 0.899218 27ZM48.5578 1.8H52.1546V19.8H48.5578V1.8ZM28.248 3.6H46.7593V16.4907L43.497 17.7966C43.2826 17.883 43.0432 17.883 42.8288 17.7966L39.0009 16.2666C38.8946 16.2235 38.7811 16.2009 38.6664 16.2H30.5734C30.0964 16.2 29.639 16.0104 29.3017 15.6728C28.9644 15.3352 28.775 14.8774 28.775 14.4C28.775 13.9226 28.9644 13.4648 29.3017 13.1272C29.639 12.7896 30.0964 12.6 30.5734 12.6H42.2632V10.8H39.5656V6.3C39.5656 6.06131 39.4708 5.83239 39.3022 5.6636C39.1336 5.49482 38.9049 5.4 38.6664 5.4H26.4496L28.248 3.6ZM1.79844 7.2H37.7672V10.8H30.5734C29.6195 10.8 28.7046 11.1793 28.03 11.8544C27.3555 12.5295 26.9765 13.4452 26.9765 14.4C26.9765 15.3548 27.3555 16.2705 28.03 16.9456C28.7046 17.6207 29.6195 18 30.5734 18H37.7672V25.2H1.79844V7.2Z" fill="#1F1F1F"/>
<path d="M19.7828 9C18.36 9 16.9692 9.42227 15.7862 10.2134C14.6032 11.0046 13.6811 12.1291 13.1366 13.4447C12.5922 14.7603 12.4497 16.208 12.7273 17.6047C13.0048 19.0013 13.69 20.2842 14.696 21.2912C15.7021 22.2981 16.9839 22.9838 18.3794 23.2617C19.7748 23.5395 21.2212 23.3969 22.5357 22.8519C23.8502 22.307 24.9737 21.3841 25.7642 20.2001C26.5546 19.0161 26.9765 17.624 26.9765 16.2C26.9744 14.2911 26.2158 12.461 24.8672 11.1112C23.5185 9.7614 21.69 9.00214 19.7828 9ZM19.7828 21.6C18.7157 21.6 17.6726 21.2833 16.7853 20.6899C15.8981 20.0966 15.2065 19.2532 14.7982 18.2665C14.3898 17.2798 14.283 16.194 14.4912 15.1465C14.6993 14.099 15.2132 13.1368 15.9677 12.3816C16.7223 11.6264 17.6836 11.1121 18.7302 10.9038C19.7768 10.6954 20.8616 10.8023 21.8475 11.2111C22.8334 11.6198 23.676 12.3119 24.2688 13.1999C24.8617 14.0879 25.1781 15.132 25.1781 16.2C25.1767 17.6317 24.6078 19.0044 23.5963 20.0168C22.5848 21.0292 21.2133 21.5986 19.7828 21.6ZM3.59687 9.9V13.5H5.39531V10.8H8.09296V9H4.49609C4.2576 9 4.02888 9.09482 3.86025 9.2636C3.69161 9.43239 3.59687 9.6613 3.59687 9.9ZM5.39531 18.9H3.59687V22.5C3.59687 22.7387 3.69161 22.9676 3.86025 23.1364C4.02888 23.3052 4.2576 23.4 4.49609 23.4H8.09296V21.6H5.39531V18.9ZM34.1703 21.6H31.4726V23.4H35.0695C35.308 23.4 35.5367 23.3052 35.7053 23.1364C35.874 22.9676 35.9687 22.7387 35.9687 22.5V18.9H34.1703V21.6Z" fill="#1F1F1F"/>
</svg>
