<svg width="54" height="52" viewBox="0 0 54 52" fill="none" xmlns="http://www.w3.org/2000/svg">
<path d="M40.5 0H11.7C10.9846 0.00205755 10.2991 0.276646 9.79317 0.763795C9.28729 1.25094 9.00214 1.91107 9 2.6V20.8H5.4C5.28588 20.7983 5.17259 20.819 5.067 20.8607L0.567001 22.594C0.399542 22.6582 0.255967 22.7694 0.154873 22.9131C0.0537797 23.0568 -0.000174072 23.2264 4.21917e-07 23.4V35.5333C0.000767328 35.6761 0.0381381 35.8164 0.108792 35.9419C0.179446 36.0674 0.281196 36.1742 0.405 36.2527L3.114 37.986C3.25964 38.0824 3.43229 38.1338 3.609 38.1333H9V49.4C9.00214 50.0889 9.28729 50.7491 9.79317 51.2362C10.2991 51.7234 10.9846 51.9979 11.7 52H40.5C41.2154 51.9979 41.9009 51.7234 42.4068 51.2362C42.9127 50.7491 43.1979 50.0889 43.2 49.4V2.6C43.1979 1.91107 42.9127 1.25094 42.4068 0.763795C41.9009 0.276646 41.2154 0.00205755 40.5 0ZM8.91 27.7333H9V36.4H3.879L1.8 35.0653V23.9893L5.571 22.5333H16.2C16.6774 22.5333 17.1352 22.716 17.4728 23.041C17.8104 23.3661 18 23.807 18 24.2667C18 24.7264 17.8104 25.1673 17.4728 25.4923C17.1352 25.8174 16.6774 26 16.2 26H8.1C7.8613 26 7.63239 26.0913 7.4636 26.2538C7.29482 26.4164 7.2 26.6368 7.2 26.8667C7.19786 27.5556 6.91271 28.2157 6.40683 28.7029C5.90094 29.19 5.21543 29.4646 4.5 29.4667V31.2C5.53698 31.1987 6.54181 30.8533 7.34512 30.2218C8.14844 29.5903 8.70111 28.7114 8.91 27.7333ZM41.4 49.4C41.4 49.6299 41.3052 49.8503 41.1364 50.0128C40.9676 50.1754 40.7387 50.2667 40.5 50.2667H11.7C11.4613 50.2667 11.2324 50.1754 11.0636 50.0128C10.8948 49.8503 10.8 49.6299 10.8 49.4V27.7333H16.2C17.1548 27.7333 18.0705 27.3681 18.7456 26.718C19.4207 26.0678 19.8 25.1861 19.8 24.2667C19.8 23.3472 19.4207 22.4655 18.7456 21.8154C18.0705 21.1652 17.1548 20.8 16.2 20.8H10.8V2.6C10.8 2.37015 10.8948 2.14971 11.0636 1.98717C11.2324 1.82464 11.4613 1.73333 11.7 1.73333H40.5C40.7387 1.73333 40.9676 1.82464 41.1364 1.98717C41.3052 2.14971 41.4 2.37015 41.4 2.6V49.4Z" fill="#1F1F1F"/>
<path d="M26.1 15.6C26.3387 15.6 26.5676 15.5086 26.7363 15.3461L31.8276 10.4433L30.555 9.21787L26.1 13.5079L24.1902 11.6688L22.9176 12.8943L25.4637 15.3461C25.6324 15.5086 25.8613 15.6 26.1 15.6Z" fill="#1F1F1F"/>
<path d="M34.569 7.01133L26.469 3.54467C26.3533 3.49328 26.2274 3.46668 26.1 3.46668C25.9726 3.46668 25.8467 3.49328 25.731 3.54467L17.631 7.01133C17.4722 7.07851 17.3373 7.18899 17.2429 7.32914C17.1486 7.46929 17.0989 7.63298 17.1 7.8V13.3553C17.0996 14.456 17.3416 15.5442 17.8101 16.5481C18.2787 17.5521 18.963 18.4489 19.818 19.1793L25.506 24.05C25.6702 24.1889 25.8814 24.2656 26.1 24.2656C26.3186 24.2656 26.5298 24.1889 26.694 24.05L32.382 19.1793C33.237 18.4489 33.9213 17.5521 34.3899 16.5481C34.8584 15.5442 35.1004 14.456 35.1 13.3553V7.8C35.1011 7.63298 35.0514 7.46929 34.9571 7.32914C34.8627 7.18899 34.7278 7.07851 34.569 7.01133ZM33.3 13.3553C33.2989 14.2117 33.1099 15.0582 32.7454 15.8393C32.381 16.6204 31.8492 17.3186 31.185 17.888L26.1 22.2387L21.015 17.888C20.3508 17.3186 19.819 16.6204 19.4546 15.8393C19.0901 15.0582 18.9011 14.2117 18.9 13.3553V8.36333L26.1 5.278L33.3 8.36333V13.3553ZM53.1 17.3333H50.4V14.7333C50.4 14.0438 50.1155 13.3825 49.6092 12.8949C49.1028 12.4073 48.4161 12.1333 47.7 12.1333C46.9839 12.1333 46.2972 12.4073 45.7908 12.8949C45.2845 13.3825 45 14.0438 45 14.7333V44.2C45.0001 44.2701 45.0092 44.34 45.027 44.408L46.827 51.3413C46.8758 51.5287 46.9882 51.6951 47.1463 51.8139C47.3045 51.9328 47.4994 51.9973 47.7 51.9973C47.9006 51.9973 48.0955 51.9328 48.2537 51.8139C48.4118 51.6951 48.5242 51.5287 48.573 51.3413L50.373 44.408C50.3908 44.34 50.3999 44.2701 50.4 44.2V19.0667H52.2V26.8667H54V18.2C54 17.9701 53.9052 17.7497 53.7364 17.5872C53.5676 17.4246 53.3387 17.3333 53.1 17.3333ZM47.7 47.5627L47.052 45.0667H48.348L47.7 47.5627ZM48.6 43.3333H46.8V19.0667H48.6V43.3333ZM48.6 17.3333H46.8V14.7333C46.8 14.5035 46.8948 14.283 47.0636 14.1205C47.2324 13.958 47.4613 13.8667 47.7 13.8667C47.9387 13.8667 48.1676 13.958 48.3364 14.1205C48.5052 14.283 48.6 14.5035 48.6 14.7333V17.3333ZM14.4 31.2H18V32.9333H14.4V31.2ZM19.8 31.2H37.8V32.9333H19.8V31.2ZM14.4 36.4H18V38.1333H14.4V36.4ZM19.8 36.4H37.8V38.1333H19.8V36.4ZM14.4 41.6H18V43.3333H14.4V41.6ZM19.8 41.6H37.8V43.3333H19.8V41.6ZM14.4 46.8H18V48.5333H14.4V46.8ZM19.8 46.8H37.8V48.5333H19.8V46.8Z" fill="#1F1F1F"/>
</svg>
