<svg width="52" height="52" viewBox="0 0 52 52" fill="none" xmlns="http://www.w3.org/2000/svg">
<path d="M5.26761 16.6459V21.5878C5.26761 22.2744 5.82364 22.8309 6.50946 22.8309H11.0973M5.26761 16.6459L5.26731 14.3387C5.267 10.7759 6.65272 7.42635 9.16942 4.90689C11.6861 2.38753 15.0321 1 18.5911 1C25.9376 1 31.9147 6.98284 31.9151 14.3367L31.9153 16.6459C31.9154 18.0741 30.7589 19.2319 29.3321 19.2319M5.26761 16.6459C5.26781 18.0742 6.42455 19.2319 7.85131 19.2319M38.2228 4.97577H46.8475M38.2228 8.29967H46.8475M6.96791 46.0183V51M18.5911 3.6396C17.1959 3.6396 15.8629 3.90607 14.6399 4.39057C14.3763 4.8103 14.237 5.29621 14.2379 5.79199C14.2414 9.75407 17.4528 12.9633 21.4109 13.2982L29.2762 13.2922C28.7264 7.87046 24.1523 3.6396 18.5911 3.6396ZM18.5911 3.6396C24.5226 3.6396 29.3313 8.45274 29.3316 14.3904L29.3323 23.4021C29.3325 26.3369 26.9559 28.716 24.0242 28.716H23.0897M18.5911 3.6396C12.659 3.6396 7.8501 8.45375 7.8506 14.3921L7.85171 23.4032C7.85211 26.3375 10.2285 28.716 13.1598 28.716H14.1191M26.3284 19.2319H29.3327M7.8506 19.2319H10.8602M10.8035 13.2924C10.812 13.2924 10.8202 13.2918 10.8287 13.2917H7.95312M10.8035 13.2924C13.1127 13.2904 14.9831 11.4149 14.9812 9.10341M10.8035 13.2924L10.8333 18.6231C10.8343 19.8085 11.1211 20.8732 11.5899 21.8113M13.5071 24.2986C15.2199 25.8563 17.3489 26.69 18.6012 26.7158C20.946 26.6634 26.3596 23.7746 26.3551 18.6098L26.3639 13.2944M39.0512 1H37.5946C35.6482 1 34.0703 2.57957 34.0703 4.52783V8.76594C34.0703 10.4352 35.2286 11.8336 36.7845 12.2C37.2609 12.3122 37.5917 12.7466 37.5917 13.2365V16.3356C37.5917 16.6468 37.9893 16.7762 38.1721 16.5245L40.9262 12.7342C41.0252 12.5977 41.1551 12.4867 41.3052 12.4102C41.4554 12.3337 41.6215 12.2938 41.7899 12.2938H47.4759C49.4222 12.2938 51 10.7143 51 8.76594V4.52783C51 2.57957 49.4222 1 47.4759 1H42.5352M29.724 31.9894L25.1073 30.7207C23.8506 30.3754 22.9792 29.2323 22.978 27.9278L22.9754 24.8846M14.2246 24.8926L14.2273 27.9353C14.2284 29.2399 13.3595 30.3843 12.1034 30.7317L7.4662 32.0147M7.4662 32.0147C9.6991 35.8388 13.8433 38.4083 18.5875 38.4083C18.8251 38.4083 19.0606 38.4002 19.2949 38.3874M7.4662 32.0147L5.24095 32.6303C2.7332 33.3241 0.997789 35.6089 1 38.2133L1.00946 49.1938C1.01026 50.1921 1.81942 51.0007 2.8168 50.9999L18.5696 50.9862M35.5611 35.5005C34.8341 34.114 33.5567 33.0425 31.9718 32.6071L29.7239 31.9893C28.9445 33.3297 27.9309 34.519 26.7314 35.5005M19.2949 44.5505V48.1404M41.9912 48.1404V36.8979C41.9912 36.1261 41.3663 35.5005 40.5953 35.5005H20.6908C19.9199 35.5005 19.2949 36.1261 19.2949 36.8979V41.0234M15.5285 24.2986H12.511C11.7302 24.2986 11.0973 23.6651 11.0973 22.8834C11.0973 22.1019 11.7302 21.4684 12.511 21.4684H15.5285C16.3093 21.4684 16.9423 22.1019 16.9423 22.8834C16.9423 23.6651 16.3093 24.2986 15.5285 24.2986ZM42.5299 50.9999H18.7563C17.9676 50.9999 17.3281 50.3598 17.3281 49.5702C17.3281 48.7805 17.9676 48.1404 18.7563 48.1404H42.5299C43.3187 48.1404 43.9581 48.7805 43.9581 49.5702C43.9581 50.3598 43.3187 50.9999 42.5299 50.9999Z" stroke="#1F1F1F" stroke-miterlimit="10" stroke-linecap="round" stroke-linejoin="round"/>
</svg>
