<svg width="50" height="50" viewBox="0 0 50 50" fill="none" xmlns="http://www.w3.org/2000/svg">
<path d="M36.4401 1.93602L7.58857 0.0037954C6.64805 -0.0585879 5.83232 0.655495 5.76933 1.59692L5.54365 4.97588H1.70898C0.766699 4.97588 0 5.74355 0 6.68702V48.2889C0 49.2323 0.766699 50 1.70898 50H23.7931C23.9866 49.9992 24.1721 49.9225 24.3099 49.7864L27.6437 46.4631C27.6775 46.4704 27.7121 46.4761 27.7477 46.4785L33.4393 46.8596C34.3477 46.9197 35.1976 46.1799 35.2585 45.2665L38.0312 3.75765C38.0936 2.826 37.3705 1.9983 36.4401 1.93602ZM24.5255 47.4917V42.3974C24.5255 42.2626 24.6351 42.1529 24.7696 42.1529H29.838L24.5255 47.4917ZM33.7969 45.1687C33.773 45.3164 33.6864 45.3922 33.5371 45.3962L29.0176 45.0935L32.1184 42.0026C32.1867 41.9345 32.241 41.8535 32.278 41.7643C32.315 41.6751 32.3341 41.5795 32.3341 41.4829V6.68712C32.3341 5.74365 31.5674 4.97598 30.6251 4.97598H23.0086C22.0616 4.97598 22.0616 6.44267 23.0086 6.44267H30.6251C30.7598 6.44267 30.8692 6.55238 30.8692 6.68712V40.6862H24.7696C23.8273 40.6862 23.0606 41.4539 23.0606 42.3974V48.5333H1.70898C1.64426 48.5332 1.5822 48.5075 1.53644 48.4616C1.49067 48.4158 1.46492 48.3537 1.46484 48.2889V6.68712C1.46484 6.55238 1.57441 6.44267 1.70898 6.44267H19.1082C20.0552 6.44267 20.0552 4.97598 19.1082 4.97598H7.01172L7.23086 1.69489C7.25469 1.54715 7.34131 1.47137 7.49072 1.46736L36.3423 3.39948C36.4898 3.42334 36.5656 3.51007 36.5696 3.65967L33.7969 45.1687Z" fill="#1F1F1F"/>
<path d="M26.155 23.1468H6.1791C5.98485 23.1468 5.79856 23.2241 5.6612 23.3616C5.52384 23.4991 5.44668 23.6857 5.44668 23.8802C5.44668 24.0747 5.52384 24.2612 5.6612 24.3987C5.79856 24.5363 5.98485 24.6135 6.1791 24.6135H26.155C26.5596 24.6135 26.8874 24.2852 26.8874 23.8802C26.8874 23.4752 26.5596 23.1468 26.155 23.1468ZM26.155 28.2592H6.1791C5.98485 28.2592 5.79856 28.3365 5.6612 28.474C5.52384 28.6115 5.44668 28.7981 5.44668 28.9926C5.44668 29.1871 5.52384 29.3736 5.6612 29.5111C5.79856 29.6487 5.98485 29.7259 6.1791 29.7259H26.155C26.5596 29.7259 26.8874 29.3976 26.8874 28.9926C26.8874 28.5876 26.5596 28.2592 26.155 28.2592ZM5.44668 18.7678C5.44668 18.9623 5.52384 19.1488 5.6612 19.2863C5.79856 19.4239 5.98485 19.5011 6.1791 19.5011H26.155C26.5596 19.5011 26.8874 19.1728 26.8874 18.7678C26.8874 18.3628 26.5596 18.0344 26.155 18.0344H6.1791C5.98485 18.0344 5.79856 18.1117 5.6612 18.2492C5.52384 18.3867 5.44668 18.5733 5.44668 18.7678ZM8.96553 13.6554C8.96553 13.8499 9.04269 14.0364 9.18005 14.1739C9.3174 14.3115 9.5037 14.3887 9.69795 14.3887H22.6361C22.8304 14.3887 23.0167 14.3115 23.154 14.1739C23.2914 14.0364 23.3686 13.8499 23.3686 13.6554C23.3686 13.4609 23.2914 13.2743 23.154 13.1368C23.0167 12.9993 22.8304 12.922 22.6361 12.922H9.69795C9.5037 12.922 9.3174 12.9993 9.18005 13.1368C9.04269 13.2743 8.96553 13.4609 8.96553 13.6554ZM19.019 42.8729C17.7018 42.8764 16.3845 42.8792 15.0672 42.8813C14.6244 42.8819 14.1817 42.8825 13.7391 42.8828C12.9368 42.8834 12.3963 42.7222 12.2166 41.8386C12.0646 41.0916 11.0092 41.192 10.8041 41.8386C10.2973 43.4361 9.45898 42.8102 8.98945 41.7357C8.521 40.6637 8.40088 39.464 8.19629 38.3232C8.0459 37.4849 6.77969 37.7199 6.75762 38.5181C6.72851 39.5694 6.63047 40.6039 6.36396 41.6234C6.08906 42.6753 5.67705 43.6863 5.26807 44.6914C4.91152 45.5676 6.3293 45.9445 6.68056 45.0813C7.04297 44.1907 7.40586 43.2953 7.67598 42.3714C8.17793 43.58 9.2164 44.947 10.6962 44.1413C10.9715 43.9915 11.2286 43.7784 11.4543 43.5299C12.2238 44.4203 13.3692 44.3501 14.441 44.3488C15.9671 44.3469 17.4932 44.3436 19.0192 44.3395C19.9615 44.3371 19.9633 42.8704 19.019 42.8729ZM49.4074 24.0652C49.0268 23.686 48.5036 23.4915 47.9724 23.4771L47.4188 23.4799V22.4318C47.4188 21.7934 47.0401 21.1189 46.4976 20.783V19.3067C46.4976 16.2688 41.7738 16.282 41.7738 19.321V20.7975C41.2212 21.1395 40.8505 21.7499 40.8505 22.4453V23.5191C38.4124 23.6853 38.4055 27.4053 40.8532 27.5507C40.8688 30.8337 40.8681 34.0628 40.8505 37.4007C40.8457 38.3212 42.3103 38.3752 42.3153 37.4084C42.3329 34.0677 42.3337 30.8357 42.3182 27.55L45.952 27.5319C45.952 27.5319 45.9474 38.3706 45.9474 43.2533C45.9474 45.6331 42.3127 45.6489 42.3127 43.2286L42.314 41.8912C42.3711 40.9447 40.909 40.8564 40.8517 41.8029V43.0578C40.8517 44.1333 41.184 45.0442 41.8271 45.685C41.8844 47.2194 42.5301 48.7042 43.621 49.7874C43.934 50.0984 44.3673 50.0033 44.6702 49.7696C45.7801 48.6564 46.4055 47.1888 46.4445 45.6224C46.928 45.1403 47.4121 44.6548 47.4121 42.9925L47.4127 36.3092C48.6793 36.6699 50 35.6885 50 34.3589V25.493C50.0008 25.2276 49.9488 24.9646 49.847 24.7195C49.7453 24.4743 49.5959 24.2519 49.4074 24.0652ZM42.3153 23.5052V22.4452C42.3153 22.2282 42.4641 22.0462 42.6642 21.9921L45.5964 21.9776C45.6784 21.9979 45.7541 22.0367 45.8154 22.0979C45.8595 22.1416 45.8944 22.1936 45.9182 22.2509C45.942 22.3082 45.9542 22.3697 45.954 22.4318V23.4872L42.3153 23.5052ZM44.1387 18.4207C44.5883 18.4207 45.0327 18.862 45.0327 19.3067V20.4963L43.2386 20.5052V19.321C43.2387 18.8269 43.6422 18.4231 44.1387 18.4207ZM44.1376 48.1359C43.7969 47.6519 43.5512 47.1076 43.4133 46.5318C43.64 46.5809 43.8697 46.6066 44.0995 46.6066C44.356 46.6066 44.6125 46.5747 44.865 46.513C44.731 47.0964 44.4838 47.6478 44.1376 48.1359ZM48.5351 34.3589C48.5351 35.0532 47.4168 35.1079 47.4168 34.3717C47.4168 34.3717 47.4181 27.4319 47.4188 26.7958C47.4193 26.3855 47.0787 26.0615 46.6808 26.0615L40.9787 26.0899C40.2715 26.0899 40.288 24.9819 40.9859 24.9785L47.9796 24.9438C48.3178 24.9727 48.5029 25.1558 48.535 25.493V34.3589H48.5351Z" fill="#1F1F1F"/>
</svg>
