<svg width="52" height="54" viewBox="0 0 52 54" fill="none" xmlns="http://www.w3.org/2000/svg">
<path d="M36.6991 25.5132H48.7218C49.9801 25.5132 51 26.5386 51 27.8035V50.7097C51 51.9746 49.9801 53 48.7218 53H35.0505C33.7923 53 32.7723 51.9746 32.7723 50.7097V42.148M32.7723 38.486V29.2045M21.0317 16.6481L23.4535 13.8891C25.1926 11.9074 28.2347 11.8122 30.0934 13.6809L36.1225 19.742C37.9813 21.6106 37.8855 24.6678 35.9154 26.4162L27.4624 33.9138C26.5601 34.7142 25.1946 34.6713 24.3444 33.8155L16.0933 25.5216C15.242 24.6658 15.1993 23.293 15.9955 22.3859L18.6223 19.3936M16.444 38.3218L22.6354 32.0985L17.8022 27.2396L13.4155 31.6497C13.2787 31.7869 13.179 31.9569 13.1256 32.1436C13.0723 32.3303 13.0671 32.5276 13.1105 32.7169L13.3103 33.5853C13.3978 33.9703 13.2833 34.3731 13.0054 34.6525L12.2873 35.3744C12.1508 35.5119 11.9817 35.6122 11.796 35.6658C11.6102 35.7194 11.414 35.7246 11.2257 35.681L10.3619 35.4801C9.97891 35.3911 9.57718 35.5073 9.2993 35.7866L7.77564 37.3184C7.63924 37.4559 7.5398 37.6259 7.48665 37.8126C7.43349 37.9992 7.42837 38.1964 7.47174 38.3856L7.67053 39.254C7.75899 39.639 7.64451 40.0419 7.36663 40.3212L5.84297 41.853C5.70641 41.9904 5.53733 42.0906 5.35162 42.1442C5.16592 42.1979 4.96969 42.2031 4.78141 42.1595L3.91655 41.9586C3.53459 41.8707 3.13286 41.9858 2.85498 42.2652L1.936 43.1891C1.77573 43.3502 1.66749 43.5552 1.62378 43.7781L1.02119 46.8667C0.948333 47.2413 1.06594 47.6274 1.33445 47.8963L2.08691 48.6538C2.21909 48.7866 2.38172 48.8847 2.56049 48.9394C2.73926 48.9941 2.92867 49.0038 3.11205 48.9676L6.1833 48.3619C6.40498 48.319 6.61 48.2091 6.76924 48.048L13.8682 40.9113M20.2186 29.6686L16.3518 33.5559M30.5298 19.3026L38.1417 11.6504M41.8861 12.8554V29.1779M41.8861 32.6138C40.9423 32.6138 40.1772 31.8447 40.1772 30.8958C40.1772 29.947 40.9422 29.1778 41.8861 29.1778C42.8299 29.1778 43.595 29.9469 43.595 30.8958C43.595 31.8446 42.8299 32.6138 41.8861 32.6138ZM36.4178 41.4326V37.6531C36.4178 36.894 37.0298 36.2787 37.7849 36.2787H45.9874C46.7425 36.2787 47.3546 36.894 47.3546 37.6531V41.4326C47.3546 42.1916 46.7425 42.807 45.9874 42.807H37.7849C37.0298 42.8068 36.4178 42.1915 36.4178 41.4326ZM36.4178 47.9607V44.1812C36.4178 43.4222 37.0298 42.8068 37.7849 42.8068H45.9874C46.7425 42.8068 47.3546 43.4222 47.3546 44.1812V47.9607C47.3546 48.7198 46.7425 49.3351 45.9874 49.3351H37.7849C37.0298 49.3351 36.4178 48.7198 36.4178 47.9607ZM48.7356 7.88597C48.7356 11.689 45.669 14.7719 41.8861 14.7719C38.1031 14.7719 35.0365 11.689 35.0365 7.88597C35.0365 4.08295 38.1031 1 41.8861 1C45.669 1 48.7356 4.08295 48.7356 7.88597ZM32.8659 24.2426C32.154 24.9583 30.9999 24.9583 30.2881 24.2426L25.6158 19.5456C24.904 18.8299 24.904 17.6697 25.6158 16.9541C26.3277 16.2384 27.4818 16.2384 28.1937 16.9541L32.8659 21.6511C33.5778 22.3668 33.5778 23.527 32.8659 24.2426Z" stroke="#1F1F1F" stroke-width="2" stroke-miterlimit="10" stroke-linecap="round" stroke-linejoin="round"/>
</svg>
